<?xml version="1.0" encoding="UTF-8" ?>
<svg version="1.1" width="96" height="96" xmlns="http://www.w3.org/2000/svg" shape-rendering="crispEdges">
<rect x="0" y="12" width="3" height="3" fill="#000000" />
<rect x="3" y="12" width="3" height="3" fill="#000000" />
<rect x="6" y="12" width="3" height="3" fill="#000000" />
<rect x="9" y="12" width="3" height="3" fill="#000000" />
<rect x="12" y="12" width="3" height="3" fill="#000000" />
<rect x="15" y="12" width="3" height="3" fill="#000000" />
<rect x="18" y="12" width="3" height="3" fill="#000000" />
<rect x="21" y="12" width="3" height="3" fill="#000000" />
<rect x="24" y="12" width="3" height="3" fill="#000000" />
<rect x="72" y="12" width="3" height="3" fill="#000000" />
<rect x="75" y="12" width="3" height="3" fill="#000000" />
<rect x="78" y="12" width="3" height="3" fill="#000000" />
<rect x="81" y="12" width="3" height="3" fill="#000000" />
<rect x="3" y="15" width="3" height="3" fill="#000000" />
<rect x="6" y="15" width="3" height="3" fill="#000000" />
<rect x="9" y="15" width="3" height="3" fill="#000000" />
<rect x="21" y="15" width="3" height="3" fill="#000000" />
<rect x="24" y="15" width="3" height="3" fill="#000000" />
<rect x="27" y="15" width="3" height="3" fill="#000000" />
<rect x="69" y="15" width="3" height="3" fill="#000000" />
<rect x="72" y="15" width="3" height="3" fill="#000000" />
<rect x="75" y="15" width="3" height="3" fill="#000000" />
<rect x="78" y="15" width="3" height="3" fill="#000000" />
<rect x="6" y="18" width="3" height="3" fill="#000000" />
<rect x="9" y="18" width="3" height="3" fill="#000000" />
<rect x="12" y="18" width="3" height="3" fill="#000000" />
<rect x="24" y="18" width="3" height="3" fill="#000000" />
<rect x="27" y="18" width="3" height="3" fill="#000000" />
<rect x="30" y="18" width="3" height="3" fill="#000000" />
<rect x="66" y="18" width="3" height="3" fill="#000000" />
<rect x="69" y="18" width="3" height="3" fill="#000000" />
<rect x="72" y="18" width="3" height="3" fill="#000000" />
<rect x="75" y="18" width="3" height="3" fill="#000000" />
<rect x="9" y="21" width="3" height="3" fill="#000000" />
<rect x="12" y="21" width="3" height="3" fill="#000000" />
<rect x="15" y="21" width="3" height="3" fill="#000000" />
<rect x="27" y="21" width="3" height="3" fill="#000000" />
<rect x="30" y="21" width="3" height="3" fill="#000000" />
<rect x="33" y="21" width="3" height="3" fill="#000000" />
<rect x="63" y="21" width="3" height="3" fill="#000000" />
<rect x="66" y="21" width="3" height="3" fill="#000000" />
<rect x="69" y="21" width="3" height="3" fill="#000000" />
<rect x="72" y="21" width="3" height="3" fill="#000000" />
<rect x="12" y="24" width="3" height="3" fill="#000000" />
<rect x="15" y="24" width="3" height="3" fill="#000000" />
<rect x="18" y="24" width="3" height="3" fill="#000000" />
<rect x="30" y="24" width="3" height="3" fill="#000000" />
<rect x="33" y="24" width="3" height="3" fill="#000000" />
<rect x="36" y="24" width="3" height="3" fill="#000000" />
<rect x="60" y="24" width="3" height="3" fill="#000000" />
<rect x="63" y="24" width="3" height="3" fill="#000000" />
<rect x="66" y="24" width="3" height="3" fill="#000000" />
<rect x="69" y="24" width="3" height="3" fill="#000000" />
<rect x="15" y="27" width="3" height="3" fill="#000000" />
<rect x="18" y="27" width="3" height="3" fill="#000000" />
<rect x="21" y="27" width="3" height="3" fill="#000000" />
<rect x="33" y="27" width="3" height="3" fill="#000000" />
<rect x="36" y="27" width="3" height="3" fill="#000000" />
<rect x="39" y="27" width="3" height="3" fill="#000000" />
<rect x="57" y="27" width="3" height="3" fill="#000000" />
<rect x="60" y="27" width="3" height="3" fill="#000000" />
<rect x="63" y="27" width="3" height="3" fill="#000000" />
<rect x="66" y="27" width="3" height="3" fill="#000000" />
<rect x="18" y="30" width="3" height="3" fill="#000000" />
<rect x="21" y="30" width="3" height="3" fill="#000000" />
<rect x="24" y="30" width="3" height="3" fill="#000000" />
<rect x="36" y="30" width="3" height="3" fill="#000000" />
<rect x="39" y="30" width="3" height="3" fill="#000000" />
<rect x="42" y="30" width="3" height="3" fill="#000000" />
<rect x="54" y="30" width="3" height="3" fill="#000000" />
<rect x="57" y="30" width="3" height="3" fill="#000000" />
<rect x="60" y="30" width="3" height="3" fill="#000000" />
<rect x="63" y="30" width="3" height="3" fill="#000000" />
<rect x="21" y="33" width="3" height="3" fill="#000000" />
<rect x="24" y="33" width="3" height="3" fill="#000000" />
<rect x="27" y="33" width="3" height="3" fill="#000000" />
<rect x="39" y="33" width="3" height="3" fill="#000000" />
<rect x="42" y="33" width="3" height="3" fill="#000000" />
<rect x="45" y="33" width="3" height="3" fill="#000000" />
<rect x="51" y="33" width="3" height="3" fill="#000000" />
<rect x="54" y="33" width="3" height="3" fill="#000000" />
<rect x="57" y="33" width="3" height="3" fill="#000000" />
<rect x="60" y="33" width="3" height="3" fill="#000000" />
<rect x="24" y="36" width="3" height="3" fill="#000000" />
<rect x="27" y="36" width="3" height="3" fill="#000000" />
<rect x="30" y="36" width="3" height="3" fill="#000000" />
<rect x="42" y="36" width="3" height="3" fill="#000000" />
<rect x="45" y="36" width="3" height="3" fill="#000000" />
<rect x="48" y="36" width="3" height="3" fill="#000000" />
<rect x="51" y="36" width="3" height="3" fill="#000000" />
<rect x="54" y="36" width="3" height="3" fill="#000000" />
<rect x="57" y="36" width="3" height="3" fill="#000000" />
<rect x="27" y="39" width="3" height="3" fill="#000000" />
<rect x="30" y="39" width="3" height="3" fill="#000000" />
<rect x="33" y="39" width="3" height="3" fill="#000000" />
<rect x="45" y="39" width="3" height="3" fill="#000000" />
<rect x="48" y="39" width="3" height="3" fill="#000000" />
<rect x="51" y="39" width="3" height="3" fill="#000000" />
<rect x="54" y="39" width="3" height="3" fill="#000000" />
<rect x="30" y="42" width="3" height="3" fill="#000000" />
<rect x="33" y="42" width="3" height="3" fill="#000000" />
<rect x="36" y="42" width="3" height="3" fill="#000000" />
<rect x="48" y="42" width="3" height="3" fill="#000000" />
<rect x="51" y="42" width="3" height="3" fill="#000000" />
<rect x="54" y="42" width="3" height="3" fill="#000000" />
<rect x="33" y="45" width="3" height="3" fill="#000000" />
<rect x="36" y="45" width="3" height="3" fill="#000000" />
<rect x="39" y="45" width="3" height="3" fill="#000000" />
<rect x="51" y="45" width="3" height="3" fill="#000000" />
<rect x="54" y="45" width="3" height="3" fill="#000000" />
<rect x="57" y="45" width="3" height="3" fill="#000000" />
<rect x="36" y="48" width="3" height="3" fill="#000000" />
<rect x="39" y="48" width="3" height="3" fill="#000000" />
<rect x="42" y="48" width="3" height="3" fill="#000000" />
<rect x="54" y="48" width="3" height="3" fill="#000000" />
<rect x="57" y="48" width="3" height="3" fill="#000000" />
<rect x="60" y="48" width="3" height="3" fill="#000000" />
<rect x="36" y="51" width="3" height="3" fill="#000000" />
<rect x="39" y="51" width="3" height="3" fill="#000000" />
<rect x="42" y="51" width="3" height="3" fill="#000000" />
<rect x="45" y="51" width="3" height="3" fill="#000000" />
<rect x="57" y="51" width="3" height="3" fill="#000000" />
<rect x="60" y="51" width="3" height="3" fill="#000000" />
<rect x="63" y="51" width="3" height="3" fill="#000000" />
<rect x="33" y="54" width="3" height="3" fill="#000000" />
<rect x="36" y="54" width="3" height="3" fill="#000000" />
<rect x="39" y="54" width="3" height="3" fill="#000000" />
<rect x="42" y="54" width="3" height="3" fill="#000000" />
<rect x="45" y="54" width="3" height="3" fill="#000000" />
<rect x="48" y="54" width="3" height="3" fill="#000000" />
<rect x="60" y="54" width="3" height="3" fill="#000000" />
<rect x="63" y="54" width="3" height="3" fill="#000000" />
<rect x="66" y="54" width="3" height="3" fill="#000000" />
<rect x="30" y="57" width="3" height="3" fill="#000000" />
<rect x="33" y="57" width="3" height="3" fill="#000000" />
<rect x="36" y="57" width="3" height="3" fill="#000000" />
<rect x="39" y="57" width="3" height="3" fill="#000000" />
<rect x="45" y="57" width="3" height="3" fill="#000000" />
<rect x="48" y="57" width="3" height="3" fill="#000000" />
<rect x="51" y="57" width="3" height="3" fill="#000000" />
<rect x="63" y="57" width="3" height="3" fill="#000000" />
<rect x="66" y="57" width="3" height="3" fill="#000000" />
<rect x="69" y="57" width="3" height="3" fill="#000000" />
<rect x="27" y="60" width="3" height="3" fill="#000000" />
<rect x="30" y="60" width="3" height="3" fill="#000000" />
<rect x="33" y="60" width="3" height="3" fill="#000000" />
<rect x="36" y="60" width="3" height="3" fill="#000000" />
<rect x="48" y="60" width="3" height="3" fill="#000000" />
<rect x="51" y="60" width="3" height="3" fill="#000000" />
<rect x="54" y="60" width="3" height="3" fill="#000000" />
<rect x="66" y="60" width="3" height="3" fill="#000000" />
<rect x="69" y="60" width="3" height="3" fill="#000000" />
<rect x="72" y="60" width="3" height="3" fill="#000000" />
<rect x="24" y="63" width="3" height="3" fill="#000000" />
<rect x="27" y="63" width="3" height="3" fill="#000000" />
<rect x="30" y="63" width="3" height="3" fill="#000000" />
<rect x="33" y="63" width="3" height="3" fill="#000000" />
<rect x="51" y="63" width="3" height="3" fill="#000000" />
<rect x="54" y="63" width="3" height="3" fill="#000000" />
<rect x="57" y="63" width="3" height="3" fill="#000000" />
<rect x="69" y="63" width="3" height="3" fill="#000000" />
<rect x="72" y="63" width="3" height="3" fill="#000000" />
<rect x="75" y="63" width="3" height="3" fill="#000000" />
<rect x="21" y="66" width="3" height="3" fill="#000000" />
<rect x="24" y="66" width="3" height="3" fill="#000000" />
<rect x="27" y="66" width="3" height="3" fill="#000000" />
<rect x="30" y="66" width="3" height="3" fill="#000000" />
<rect x="54" y="66" width="3" height="3" fill="#000000" />
<rect x="57" y="66" width="3" height="3" fill="#000000" />
<rect x="60" y="66" width="3" height="3" fill="#000000" />
<rect x="72" y="66" width="3" height="3" fill="#000000" />
<rect x="75" y="66" width="3" height="3" fill="#000000" />
<rect x="78" y="66" width="3" height="3" fill="#000000" />
<rect x="18" y="69" width="3" height="3" fill="#000000" />
<rect x="21" y="69" width="3" height="3" fill="#000000" />
<rect x="24" y="69" width="3" height="3" fill="#000000" />
<rect x="27" y="69" width="3" height="3" fill="#000000" />
<rect x="57" y="69" width="3" height="3" fill="#000000" />
<rect x="60" y="69" width="3" height="3" fill="#000000" />
<rect x="63" y="69" width="3" height="3" fill="#000000" />
<rect x="75" y="69" width="3" height="3" fill="#000000" />
<rect x="78" y="69" width="3" height="3" fill="#000000" />
<rect x="81" y="69" width="3" height="3" fill="#000000" />
<rect x="15" y="72" width="3" height="3" fill="#000000" />
<rect x="18" y="72" width="3" height="3" fill="#000000" />
<rect x="21" y="72" width="3" height="3" fill="#000000" />
<rect x="24" y="72" width="3" height="3" fill="#000000" />
<rect x="60" y="72" width="3" height="3" fill="#000000" />
<rect x="63" y="72" width="3" height="3" fill="#000000" />
<rect x="66" y="72" width="3" height="3" fill="#000000" />
<rect x="78" y="72" width="3" height="3" fill="#000000" />
<rect x="81" y="72" width="3" height="3" fill="#000000" />
<rect x="84" y="72" width="3" height="3" fill="#000000" />
<rect x="12" y="75" width="3" height="3" fill="#000000" />
<rect x="15" y="75" width="3" height="3" fill="#000000" />
<rect x="18" y="75" width="3" height="3" fill="#000000" />
<rect x="21" y="75" width="3" height="3" fill="#000000" />
<rect x="63" y="75" width="3" height="3" fill="#000000" />
<rect x="66" y="75" width="3" height="3" fill="#000000" />
<rect x="69" y="75" width="3" height="3" fill="#000000" />
<rect x="81" y="75" width="3" height="3" fill="#000000" />
<rect x="84" y="75" width="3" height="3" fill="#000000" />
<rect x="87" y="75" width="3" height="3" fill="#000000" />
<rect x="9" y="78" width="3" height="3" fill="#000000" />
<rect x="12" y="78" width="3" height="3" fill="#000000" />
<rect x="15" y="78" width="3" height="3" fill="#000000" />
<rect x="18" y="78" width="3" height="3" fill="#000000" />
<rect x="66" y="78" width="3" height="3" fill="#000000" />
<rect x="69" y="78" width="3" height="3" fill="#000000" />
<rect x="72" y="78" width="3" height="3" fill="#000000" />
<rect x="84" y="78" width="3" height="3" fill="#000000" />
<rect x="87" y="78" width="3" height="3" fill="#000000" />
<rect x="90" y="78" width="3" height="3" fill="#000000" />
<rect x="6" y="81" width="3" height="3" fill="#000000" />
<rect x="9" y="81" width="3" height="3" fill="#000000" />
<rect x="12" y="81" width="3" height="3" fill="#000000" />
<rect x="15" y="81" width="3" height="3" fill="#000000" />
<rect x="69" y="81" width="3" height="3" fill="#000000" />
<rect x="72" y="81" width="3" height="3" fill="#000000" />
<rect x="75" y="81" width="3" height="3" fill="#000000" />
<rect x="78" y="81" width="3" height="3" fill="#000000" />
<rect x="81" y="81" width="3" height="3" fill="#000000" />
<rect x="84" y="81" width="3" height="3" fill="#000000" />
<rect x="87" y="81" width="3" height="3" fill="#000000" />
<rect x="90" y="81" width="3" height="3" fill="#000000" />
<rect x="93" y="81" width="3" height="3" fill="#000000" />
</svg>